<svg width="54" height="54" viewBox="0 0 54 54" fill="none" xmlns="http://www.w3.org/2000/svg">
<circle cx="26.9999" cy="27.0001" r="16.2059" fill="#54C0A0" fill-opacity="0.2"/>
<circle cx="27" cy="27" r="27" fill="#54C0A0" fill-opacity="0.2"/>
<circle cx="27" cy="27" r="22" fill="#54C0A0" fill-opacity="0.2"/>
<g clip-path="url(#clip0_1_72)">
<path d="M27 15C23.8174 15 20.7652 16.2643 18.5147 18.5147C16.2643 20.7652 15 23.8174 15 27C15 30.1826 16.2643 33.2348 18.5147 35.4853C20.7652 37.7357 23.8174 39 27 39C30.1826 39 33.2348 37.7357 35.4853 35.4853C37.7357 33.2348 39 30.1826 39 27C39 23.8174 37.7357 20.7652 35.4853 18.5147C33.2348 16.2643 30.1826 15 27 15ZM31.695 36.375L31.14 35.025L29.76 35.595L30.315 36.945C29.3265 37.29 28.1865 37.4895 27 37.4895C25.8135 37.4895 24.6735 37.29 23.6115 36.9225L24.24 35.595L22.86 35.025L22.305 36.375C20.3043 35.366 18.6753 33.7484 17.652 31.755L18.975 31.14L18.405 29.745L17.055 30.3C16.71 29.3115 16.5105 28.1715 16.5105 26.985C16.5105 25.7985 16.71 24.6585 17.0775 23.5965L18.405 24.225L18.975 22.845L17.625 22.29C18.636 20.2945 20.2534 18.6708 22.245 17.652L22.86 18.975L24.24 18.405L23.685 17.055C24.6735 16.71 25.8135 16.5105 27 16.5105C28.1865 16.5105 29.3265 16.71 30.3885 17.0775L29.76 18.405L31.14 18.975L31.695 17.625C33.6957 18.634 35.3247 20.2516 36.348 22.245L35.025 22.86L35.595 24.24L36.945 23.685C37.29 24.6735 37.4895 25.8135 37.4895 27C37.4895 28.1865 37.29 29.3265 36.9225 30.3885L35.595 29.76L35.025 31.14L36.375 31.695C35.366 33.6957 33.7484 35.3247 31.755 36.348L31.695 36.375Z" fill="white" fill-opacity="0.8"/>
<path d="M28.1196 20.3587L26.7273 23.7124L27.0001 23.8257L26.9979 24.75C27.4847 24.7523 27.9573 24.9139 28.3436 25.2102L29.1179 25.8039L29.4925 24.9029L30.8925 21.5358C31.8976 22.2582 32.6922 23.2432 33.1848 24.3896C33.7834 25.7827 33.9022 27.3352 33.5224 28.8031C33.1427 30.271 32.286 31.5711 31.0869 32.4991C29.8879 33.4272 28.4145 33.9305 26.8982 33.93H26.898C25.0839 33.93 23.3441 33.2094 22.0614 31.9266C20.7786 30.6439 20.058 28.9041 20.058 27.09C20.058 25.2759 20.7786 23.5361 22.0614 22.2534C23.3441 20.9706 25.0839 20.25 26.898 20.25H27.0007C27.3766 20.2539 27.751 20.2904 28.1196 20.3587Z" stroke="white" stroke-opacity="0.8" stroke-width="1.5"/>
</g>
<defs>
<clipPath id="clip0_1_72">
<rect width="24" height="24" fill="white" transform="translate(15 15)"/>
</clipPath>
</defs>
</svg>
