<svg width="960" height="960" viewBox="0 0 960 960" fill="none" xmlns="http://www.w3.org/2000/svg">
<g filter="url(#filter0_d_1_6)">
<circle cx="480.377" cy="480.377" r="165.877" stroke="url(#paint0_linear_1_6)" stroke-opacity="0.24" shape-rendering="crispEdges"/>
</g>
<g filter="url(#filter1_d_1_6)">
<path d="M598.486 479.637C598.486 544.881 545.437 597.774 479.993 597.774C414.55 597.774 361.5 544.881 361.5 479.637C361.5 414.393 414.55 361.5 479.993 361.5C545.437 361.5 598.486 414.393 598.486 479.637Z" stroke="url(#paint1_linear_1_6)" stroke-opacity="0.24" shape-rendering="crispEdges"/>
</g>
<g filter="url(#filter2_d_1_6)">
<path d="M551.007 479.61C551.007 518.885 519.327 550.719 480.253 550.719C441.18 550.719 409.5 518.885 409.5 479.61C409.5 440.335 441.18 408.5 480.253 408.5C519.327 408.5 551.007 440.335 551.007 479.61Z" stroke="url(#paint2_linear_1_6)" stroke-opacity="0.24" shape-rendering="crispEdges"/>
</g>
<g filter="url(#filter3_d_1_6)">
<circle cx="479.87" cy="479.87" r="23.3699" stroke="url(#paint3_linear_1_6)" stroke-opacity="0.24" shape-rendering="crispEdges"/>
</g>
<g filter="url(#filter4_d_1_6)">
<circle cx="480" cy="480" r="218" fill="url(#paint4_radial_1_6)" shape-rendering="crispEdges"/>
<circle cx="480" cy="480" r="218" fill="url(#paint5_linear_1_6)" shape-rendering="crispEdges"/>
<circle cx="480" cy="480" r="217.5" stroke="url(#paint6_linear_1_6)" stroke-opacity="0.24" shape-rendering="crispEdges"/>
</g>
<path d="M480.037 469C478.627 468.997 477.192 469.266 475.808 469.84L479.136 477.874C479.43 477.752 479.737 477.696 480.037 477.699C480.347 477.702 480.651 477.768 480.931 477.89L484.259 469.856C482.932 469.299 481.498 469.003 480.037 469Z" fill="url(#paint7_linear_1_6)"/>
<path d="M472.224 472.237C471.193 473.272 470.389 474.496 469.842 475.827L477.877 479.154C477.989 478.87 478.157 478.608 478.374 478.387C478.584 478.172 478.841 477.996 479.136 477.873L475.808 469.84C474.423 470.413 473.219 471.237 472.224 472.237Z" fill="url(#paint8_linear_1_6)"/>
<path d="M487.829 472.257C486.801 471.221 485.584 470.408 484.259 469.854L480.931 477.889C481.209 478.01 481.464 478.184 481.678 478.408C481.87 478.609 482.03 478.847 482.142 479.119C482.149 479.136 482.154 479.152 482.161 479.168L490.196 475.84C490.189 475.823 490.182 475.807 490.176 475.791C489.613 474.43 488.807 473.242 487.829 472.257Z" fill="url(#paint9_linear_1_6)"/>
<path d="M482.162 479.169C482.274 479.458 482.324 479.757 482.318 480.049C482.311 480.349 482.246 480.643 482.128 480.914L490.162 484.242C490.713 482.923 491.01 481.499 491.017 480.048C491.023 478.644 490.76 477.218 490.197 475.839L482.162 479.169Z" fill="url(#paint10_linear_1_6)"/>
<path d="M477.877 479.154L469.842 475.827C469.297 477.156 469.011 478.59 469.017 480.05C469.022 481.438 469.292 482.848 469.856 484.21C469.862 484.227 469.87 484.242 469.877 484.259L477.911 480.931C477.904 480.914 477.897 480.899 477.89 480.882C477.777 480.61 477.721 480.329 477.716 480.05C477.709 479.74 477.766 479.437 477.877 479.154Z" fill="url(#paint11_linear_1_6)"/>
<path d="M482.128 480.916C482.011 481.186 481.842 481.432 481.63 481.642C481.426 481.843 481.18 482.01 480.898 482.127L484.226 490.161C485.597 489.593 486.791 488.78 487.781 487.793C488.808 486.77 489.612 485.56 490.163 484.244L482.128 480.916Z" fill="url(#paint12_linear_1_6)"/>
<path d="M478.424 481.662C478.213 481.46 478.037 481.213 477.912 480.93L469.878 484.258C470.454 485.631 471.277 486.827 472.273 487.813C473.304 488.834 474.521 489.632 475.843 490.174L479.171 482.14C478.896 482.031 478.641 481.869 478.424 481.662Z" fill="url(#paint13_linear_1_6)"/>
<path d="M480.037 482.301C479.738 482.303 479.444 482.248 479.171 482.14L475.843 490.174C477.163 490.716 478.588 491.002 480.038 491C481.436 490.998 482.856 490.729 484.227 490.161L480.899 482.127C480.616 482.243 480.324 482.299 480.037 482.301Z" fill="url(#paint14_linear_1_6)"/>
<defs>
<filter id="filter0_d_1_6" x="52" y="52" width="856.753" height="856.753" filterUnits="userSpaceOnUse" color-interpolation-filters="sRGB">
<feFlood flood-opacity="0" result="BackgroundImageFix"/>
<feColorMatrix in="SourceAlpha" type="matrix" values="0 0 0 0 0 0 0 0 0 0 0 0 0 0 0 0 0 0 127 0" result="hardAlpha"/>
<feMorphology radius="12" operator="dilate" in="SourceAlpha" result="effect1_dropShadow_1_6"/>
<feOffset/>
<feGaussianBlur stdDeviation="125"/>
<feComposite in2="hardAlpha" operator="out"/>
<feColorMatrix type="matrix" values="0 0 0 0 0 0 0 0 0 0 0 0 0 0 0 0 0 0 0.24 0"/>
<feBlend mode="normal" in2="BackgroundImageFix" result="effect1_dropShadow_1_6"/>
<feBlend mode="normal" in="SourceGraphic" in2="effect1_dropShadow_1_6" result="shape"/>
</filter>
<filter id="filter1_d_1_6" x="99" y="99" width="761.986" height="761.274" filterUnits="userSpaceOnUse" color-interpolation-filters="sRGB">
<feFlood flood-opacity="0" result="BackgroundImageFix"/>
<feColorMatrix in="SourceAlpha" type="matrix" values="0 0 0 0 0 0 0 0 0 0 0 0 0 0 0 0 0 0 127 0" result="hardAlpha"/>
<feMorphology radius="12" operator="dilate" in="SourceAlpha" result="effect1_dropShadow_1_6"/>
<feOffset/>
<feGaussianBlur stdDeviation="125"/>
<feComposite in2="hardAlpha" operator="out"/>
<feColorMatrix type="matrix" values="0 0 0 0 0 0 0 0 0 0 0 0 0 0 0 0 0 0 0.24 0"/>
<feBlend mode="normal" in2="BackgroundImageFix" result="effect1_dropShadow_1_6"/>
<feBlend mode="normal" in="SourceGraphic" in2="effect1_dropShadow_1_6" result="shape"/>
</filter>
<filter id="filter2_d_1_6" x="147" y="146" width="666.507" height="667.219" filterUnits="userSpaceOnUse" color-interpolation-filters="sRGB">
<feFlood flood-opacity="0" result="BackgroundImageFix"/>
<feColorMatrix in="SourceAlpha" type="matrix" values="0 0 0 0 0 0 0 0 0 0 0 0 0 0 0 0 0 0 127 0" result="hardAlpha"/>
<feMorphology radius="12" operator="dilate" in="SourceAlpha" result="effect1_dropShadow_1_6"/>
<feOffset/>
<feGaussianBlur stdDeviation="125"/>
<feComposite in2="hardAlpha" operator="out"/>
<feColorMatrix type="matrix" values="0 0 0 0 0 0 0 0 0 0 0 0 0 0 0 0 0 0 0.24 0"/>
<feBlend mode="normal" in2="BackgroundImageFix" result="effect1_dropShadow_1_6"/>
<feBlend mode="normal" in="SourceGraphic" in2="effect1_dropShadow_1_6" result="shape"/>
</filter>
<filter id="filter3_d_1_6" x="194" y="194" width="571.74" height="571.74" filterUnits="userSpaceOnUse" color-interpolation-filters="sRGB">
<feFlood flood-opacity="0" result="BackgroundImageFix"/>
<feColorMatrix in="SourceAlpha" type="matrix" values="0 0 0 0 0 0 0 0 0 0 0 0 0 0 0 0 0 0 127 0" result="hardAlpha"/>
<feMorphology radius="12" operator="dilate" in="SourceAlpha" result="effect1_dropShadow_1_6"/>
<feOffset/>
<feGaussianBlur stdDeviation="125"/>
<feComposite in2="hardAlpha" operator="out"/>
<feColorMatrix type="matrix" values="0 0 0 0 0 0 0 0 0 0 0 0 0 0 0 0 0 0 0.24 0"/>
<feBlend mode="normal" in2="BackgroundImageFix" result="effect1_dropShadow_1_6"/>
<feBlend mode="normal" in="SourceGraphic" in2="effect1_dropShadow_1_6" result="shape"/>
</filter>
<filter id="filter4_d_1_6" x="0" y="0" width="960" height="960" filterUnits="userSpaceOnUse" color-interpolation-filters="sRGB">
<feFlood flood-opacity="0" result="BackgroundImageFix"/>
<feColorMatrix in="SourceAlpha" type="matrix" values="0 0 0 0 0 0 0 0 0 0 0 0 0 0 0 0 0 0 127 0" result="hardAlpha"/>
<feMorphology radius="12" operator="dilate" in="SourceAlpha" result="effect1_dropShadow_1_6"/>
<feOffset/>
<feGaussianBlur stdDeviation="125"/>
<feComposite in2="hardAlpha" operator="out"/>
<feColorMatrix type="matrix" values="0 0 0 0 0 0 0 0 0 0 0 0 0 0 0 0 0 0 0.24 0"/>
<feBlend mode="normal" in2="BackgroundImageFix" result="effect1_dropShadow_1_6"/>
<feBlend mode="normal" in="SourceGraphic" in2="effect1_dropShadow_1_6" result="shape"/>
</filter>
<linearGradient id="paint0_linear_1_6" x1="480.154" y1="480.349" x2="480.376" y2="646.753" gradientUnits="userSpaceOnUse">
<stop stop-color="#64AE9D" stop-opacity="0"/>
<stop offset="1" stop-color="#64AE9D"/>
</linearGradient>
<linearGradient id="paint1_linear_1_6" x1="479.834" y1="479.617" x2="479.992" y2="598.274" gradientUnits="userSpaceOnUse">
<stop stop-color="#64AE9D" stop-opacity="0"/>
<stop offset="1" stop-color="#64AE9D"/>
</linearGradient>
<linearGradient id="paint2_linear_1_6" x1="480.158" y1="479.598" x2="480.254" y2="551.219" gradientUnits="userSpaceOnUse">
<stop stop-color="#64AE9D" stop-opacity="0"/>
<stop offset="1" stop-color="#64AE9D"/>
</linearGradient>
<linearGradient id="paint3_linear_1_6" x1="479.838" y1="479.866" x2="479.87" y2="503.74" gradientUnits="userSpaceOnUse">
<stop stop-color="#64AE9D" stop-opacity="0"/>
<stop offset="1" stop-color="#64AE9D"/>
</linearGradient>
<radialGradient id="paint4_radial_1_6" cx="0" cy="0" r="1" gradientUnits="userSpaceOnUse" gradientTransform="translate(479.672 480) rotate(89.9138) scale(218 218)">
<stop stop-color="#64AE9D" stop-opacity="0.24"/>
<stop offset="1" stop-color="#32A5D3" stop-opacity="0.02"/>
</radialGradient>
<linearGradient id="paint5_linear_1_6" x1="480" y1="474.5" x2="480" y2="480" gradientUnits="userSpaceOnUse">
<stop/>
<stop offset="1" stop-opacity="0"/>
</linearGradient>
<linearGradient id="paint6_linear_1_6" x1="479.708" y1="479.964" x2="479.999" y2="698" gradientUnits="userSpaceOnUse">
<stop stop-color="#64AE9D" stop-opacity="0"/>
<stop offset="1" stop-color="#64AE9D"/>
</linearGradient>
<linearGradient id="paint7_linear_1_6" x1="476.796" y1="473.38" x2="481.905" y2="473.483" gradientUnits="userSpaceOnUse">
<stop stop-color="#32A5D3"/>
<stop offset="0.4109" stop-color="#53BD9F"/>
<stop offset="0.6182" stop-color="#72CCB0"/>
<stop offset="1" stop-color="#74E0C1" stop-opacity="0"/>
</linearGradient>
<linearGradient id="paint8_linear_1_6" x1="473.345" y1="477.908" x2="476.751" y2="473.676" gradientUnits="userSpaceOnUse">
<stop stop-color="#32A5D3"/>
<stop offset="0.4109" stop-color="#53BD9F"/>
<stop offset="0.6182" stop-color="#72CCB0"/>
<stop offset="1" stop-color="#74E0C1" stop-opacity="0"/>
</linearGradient>
<linearGradient id="paint9_linear_1_6" x1="482.128" y1="473.245" x2="486.308" y2="476.806" gradientUnits="userSpaceOnUse">
<stop stop-color="#32A5D3"/>
<stop offset="0.4109" stop-color="#53BD9F"/>
<stop offset="0.6182" stop-color="#72CCB0"/>
<stop offset="1" stop-color="#74E0C1" stop-opacity="0"/>
</linearGradient>
<linearGradient id="paint10_linear_1_6" x1="486.608" y1="476.848" x2="486.556" y2="482.112" gradientUnits="userSpaceOnUse">
<stop stop-color="#32A5D3"/>
<stop offset="0.4109" stop-color="#53BD9F"/>
<stop offset="0.6182" stop-color="#72CCB0"/>
<stop offset="1" stop-color="#74E0C1" stop-opacity="0"/>
</linearGradient>
<linearGradient id="paint11_linear_1_6" x1="473.587" y1="483.42" x2="473.38" y2="477.897" gradientUnits="userSpaceOnUse">
<stop stop-color="#32A5D3"/>
<stop offset="0.4109" stop-color="#53BD9F"/>
<stop offset="0.6182" stop-color="#72CCB0"/>
<stop offset="1" stop-color="#74E0C1" stop-opacity="0"/>
</linearGradient>
<linearGradient id="paint12_linear_1_6" x1="486.669" y1="482.03" x2="483.262" y2="486.417" gradientUnits="userSpaceOnUse">
<stop stop-color="#32A5D3"/>
<stop offset="0.4109" stop-color="#53BD9F"/>
<stop offset="0.6182" stop-color="#72CCB0"/>
<stop offset="1" stop-color="#74E0C1" stop-opacity="0"/>
</linearGradient>
<linearGradient id="paint13_linear_1_6" x1="477.646" y1="486.982" x2="473.878" y2="483.06" gradientUnits="userSpaceOnUse">
<stop stop-color="#32A5D3"/>
<stop offset="0.4109" stop-color="#53BD9F"/>
<stop offset="0.6182" stop-color="#72CCB0"/>
<stop offset="1" stop-color="#74E0C1" stop-opacity="0"/>
</linearGradient>
<linearGradient id="paint14_linear_1_6" x1="483.246" y1="486.649" x2="478.084" y2="486.494" gradientUnits="userSpaceOnUse">
<stop stop-color="#32A5D3"/>
<stop offset="0.4109" stop-color="#53BD9F"/>
<stop offset="0.6182" stop-color="#72CCB0"/>
<stop offset="1" stop-color="#74E0C1" stop-opacity="0"/>
</linearGradient>
</defs>
</svg>
