<svg width="54" height="54" viewBox="0 0 54 54" fill="none" xmlns="http://www.w3.org/2000/svg">
<circle cx="26.9999" cy="27.0001" r="16.2059" fill="#54C0A0" fill-opacity="0.2"/>
<circle cx="27" cy="27" r="27" fill="#54C0A0" fill-opacity="0.2"/>
<circle cx="27" cy="27" r="22" fill="#54C0A0" fill-opacity="0.2"/>
<g clip-path="url(#clip0_1_83)">
<path fill-rule="evenodd" clip-rule="evenodd" d="M26.298 17.195C26.6926 17.0473 27.1238 17.0281 27.53 17.14L27.702 17.195L34.702 19.82C35.0569 19.9531 35.3667 20.1843 35.5953 20.4867C35.8239 20.7891 35.9618 21.1502 35.993 21.528L36 21.693V27.056C36 28.6764 35.5624 30.2668 34.7336 31.6592C33.9048 33.0516 32.7154 34.1944 31.291 34.967L31.025 35.106L27.671 36.783C27.4863 36.8752 27.2846 36.9283 27.0785 36.939C26.8723 36.9496 26.6662 36.9176 26.473 36.845L26.329 36.783L22.975 35.106C21.5256 34.3813 20.2988 33.2787 19.424 31.9146C18.5492 30.5505 18.059 28.9756 18.005 27.356L18 27.056V21.693C18 21.3141 18.1076 20.943 18.3103 20.623C18.513 20.3029 18.8025 20.047 19.145 19.885L19.298 19.82L26.298 17.195ZM27 19.068L20 21.693V27.056C20 28.311 20.3375 29.5429 20.977 30.6228C21.6165 31.7026 22.5345 32.5907 23.635 33.194L23.87 33.317L27 34.882L30.13 33.317C31.2527 32.7557 32.2039 31.9029 32.8839 30.8479C33.5638 29.7928 33.9476 28.5743 33.995 27.32L34 27.056V21.693L27 19.068ZM26.508 22.516C26.7788 22.4146 27.0743 22.3996 27.354 22.473L27.492 22.516L30.292 23.566C30.5376 23.6581 30.7524 23.8174 30.9119 24.0257C31.0714 24.234 31.1691 24.4829 31.194 24.744L31.2 24.877V27.022C31.2 27.7653 31.0027 28.4953 30.6283 29.1374C30.254 29.7796 29.7159 30.3108 29.069 30.677L28.879 30.779L27.537 31.449C27.3916 31.5218 27.233 31.5643 27.0707 31.5739C26.9085 31.5835 26.7459 31.5601 26.593 31.505L26.463 31.45L25.122 30.779C24.4573 30.4466 23.8927 29.9438 23.4858 29.3219C23.0789 28.7 22.8443 27.9812 22.806 27.239L22.8 27.022V24.877C22.8 24.6147 22.8737 24.3578 23.0127 24.1353C23.1517 23.9129 23.3503 23.734 23.586 23.619L23.708 23.566L26.508 22.516ZM27 24.468L24.8 25.293V27.023C24.8001 27.4032 24.8987 27.7768 25.0863 28.1075C25.2738 28.4383 25.5438 28.7147 25.87 28.91L26.016 28.99L27 29.482L27.984 28.99C28.3243 28.8199 28.6146 28.5644 28.8267 28.2486C29.0388 27.9328 29.1653 27.5673 29.194 27.188L29.2 27.022V25.293L27 24.468Z" fill="white" fill-opacity="0.8"/>
</g>
<defs>
<clipPath id="clip0_1_83">
<rect width="24" height="24" fill="white" transform="translate(15 15)"/>
</clipPath>
</defs>
</svg>
