<svg width="20" height="12" viewBox="0 0 20 12" fill="none" xmlns="http://www.w3.org/2000/svg">
<path d="M6 0C7.5913 0 9.11742 0.632141 10.2426 1.75736C11.3679 2.88258 12 4.4087 12 6C12 7.5913 11.3679 9.11742 10.2426 10.2426C9.11742 11.3679 7.5913 12 6 12C4.4087 12 2.88258 11.3679 1.75736 10.2426C0.632141 9.11742 0 7.5913 0 6C0 4.4087 0.632141 2.88258 1.75736 1.75736C2.88258 0.632141 4.4087 0 6 0ZM15 1C16.5 1 17.5 3.239 17.5 6C17.5 8.761 16.5 11 15 11C13.5 11 12.5 8.761 12.5 6C12.5 3.239 13.5 1 15 1ZM19 1.5C19.38 1.5 19.712 2.327 19.88 3.746L19.927 4.189L19.946 4.424L19.976 4.918L19.986 5.177L19.998 5.718L20 6L19.998 6.282L19.986 6.823L19.976 7.083L19.946 7.576L19.926 7.811L19.881 8.254C19.712 9.674 19.381 10.5 19 10.5C18.62 10.5 18.288 9.673 18.12 8.254L18.073 7.811C18.0661 7.73271 18.0598 7.65438 18.054 7.576L18.024 7.082C18.0201 6.99569 18.0168 6.90935 18.014 6.823L18.002 6.282V5.718L18.014 5.177L18.024 4.917L18.054 4.424L18.074 4.189L18.119 3.746C18.288 2.326 18.619 1.5 19 1.5Z" fill="white" fill-opacity="0.8"/>
</svg>
