<svg width="141" height="28" viewBox="0 0 141 28" fill="none" xmlns="http://www.w3.org/2000/svg">
<path d="M13.7868 1.16605C12.174 1.16216 10.5332 1.47587 8.94971 2.14605L12.7561 11.5196C13.0928 11.377 13.4436 11.3109 13.7868 11.3148C14.1413 11.3186 14.4896 11.3951 14.8098 11.5377L18.6162 2.1642C17.0987 1.51476 15.458 1.16994 13.7868 1.16605Z" fill="url(#paint0_linear_1_234)"/>
<path d="M4.84981 4.9426C3.67041 6.15074 2.75028 7.57797 2.125 9.13093L11.3149 13.0133C11.4432 12.6815 11.6351 12.3756 11.8842 12.1176C12.1244 11.8674 12.418 11.6613 12.7548 11.5187L8.94973 2.14648C7.36619 2.81537 5.98854 3.77593 4.84981 4.9426Z" fill="url(#paint1_linear_1_234)"/>
<path d="M22.6996 4.9647C21.524 3.75655 20.1323 2.80766 18.6162 2.16211L14.8098 11.5356C15.1275 11.6769 15.4198 11.8804 15.6639 12.141C15.8837 12.3756 16.0667 12.653 16.1951 12.9706C16.2027 12.9901 16.2091 13.0095 16.2167 13.029L25.4079 9.14655C25.4002 9.12711 25.3926 9.10767 25.385 9.08952C24.7406 7.50026 23.818 6.11452 22.6996 4.9647Z" fill="url(#paint2_linear_1_234)"/>
<path d="M16.2167 13.0298C16.3451 13.3668 16.4023 13.7155 16.3947 14.0564C16.387 14.4064 16.3121 14.75 16.1773 15.0663L25.3672 18.9487C25.9976 17.41 26.3369 15.7481 26.3445 14.0551C26.3522 12.4179 26.051 10.7535 25.4066 9.14478L16.2167 13.0298Z" fill="url(#paint3_linear_1_234)"/>
<path d="M11.3161 13.0133L2.12625 9.13086C1.50224 10.6812 1.17562 12.3547 1.18198 14.0581C1.18833 15.6772 1.49716 17.3222 2.14151 18.9114C2.14913 18.9309 2.15803 18.949 2.16565 18.9685L11.3568 15.086C11.3492 15.0666 11.3403 15.0485 11.3327 15.029C11.203 14.7114 11.1395 14.3835 11.1331 14.0581C11.1242 13.6964 11.189 13.3425 11.3161 13.0133Z" fill="url(#paint4_linear_1_234)"/>
<path d="M16.1786 15.0684C16.0452 15.3834 15.852 15.6711 15.6093 15.9161C15.3754 16.1508 15.0945 16.3452 14.7717 16.4813L18.5781 25.8548C20.1464 25.1924 21.5126 24.2435 22.645 23.0924C23.8193 21.8985 24.7407 20.4869 25.3698 18.9521L16.1786 15.0684Z" fill="url(#paint5_linear_1_234)"/>
<path d="M11.9428 15.9382C11.7013 15.7023 11.4993 15.4145 11.3569 15.084L2.16577 18.9664C2.82537 20.5686 3.76583 21.9634 4.90583 23.1145C6.08523 24.3058 7.47686 25.2366 8.98923 25.8692L12.7956 16.4957C12.4817 16.3686 12.1906 16.1794 11.9428 15.9382Z" fill="url(#paint6_linear_1_234)"/>
<path d="M13.7868 16.684C13.4449 16.6866 13.1094 16.6218 12.7967 16.496L8.99039 25.8695C10.5002 26.5008 12.1295 26.8353 13.788 26.8327C15.3868 26.8301 17.011 26.5164 18.5793 25.854L14.773 16.4805C14.4489 16.6166 14.1147 16.6814 13.7868 16.684Z" fill="url(#paint7_linear_1_234)"/>
<path d="M48.026 14.1323C45.3063 14.1323 42.6095 14.1323 39.877 14.1323C39.8999 14.2632 39.9126 14.3656 39.9342 14.4641C40.0524 15.0164 40.271 15.518 40.651 15.9393C41.0501 16.3801 41.5457 16.6419 42.1214 16.7249C42.7531 16.8156 43.3809 16.7949 43.9808 16.5304C44.4523 16.323 44.7827 15.9769 44.9606 15.4817C44.9797 15.4273 45.0026 15.3741 45.0305 15.3041C46.0383 15.3041 47.0474 15.3041 48.0819 15.3041C48.0731 15.3651 48.068 15.4182 48.0565 15.4701C47.7045 17.0191 46.8047 18.1197 45.4092 18.8015C44.2832 19.3525 43.0899 19.4899 41.8571 19.3447C40.9776 19.241 40.1655 18.9558 39.4233 18.4606C38.5248 17.8617 37.8665 17.0528 37.4191 16.0664C37.0073 15.1577 36.8142 14.1958 36.8497 13.1964C36.8904 12.0375 37.1662 10.9421 37.7737 9.94784C38.5133 8.7371 39.5707 7.96062 40.9242 7.63396C42.2384 7.31636 43.5436 7.38118 44.8145 7.88025C45.9621 8.33136 46.8187 9.1234 47.3893 10.2253C47.9587 11.3232 48.1557 12.5028 48.054 13.7369C48.0451 13.8523 48.0375 13.969 48.026 14.1323ZM39.9482 12.101C41.6194 12.101 43.2678 12.101 44.9403 12.101C44.9136 11.9364 44.9022 11.7912 44.8666 11.6525C44.6302 10.7399 44.0875 10.1306 43.175 9.8947C42.7925 9.79488 42.4074 9.78581 42.0109 9.82858C40.9128 9.94914 40.1109 10.7256 39.9482 12.101Z" fill="white"/>
<path d="M57.2096 10.3068C56.1979 10.3068 55.2143 10.3068 54.2077 10.3068C54.1988 10.3924 54.1848 10.4663 54.1848 10.5402C54.1836 11.9752 54.1823 13.4102 54.1861 14.8452C54.1861 15.0007 54.2064 15.1563 54.2293 15.3093C54.3373 16.0468 54.8203 16.4591 55.5688 16.5083C56.0175 16.5381 56.4686 16.5187 56.9173 16.5213C57.01 16.5213 57.1041 16.5213 57.2108 16.5213C57.2108 17.4261 57.2108 18.2998 57.2108 19.193C57.1575 19.2007 57.1028 19.2163 57.0494 19.2163C56.3797 19.2163 55.7086 19.2293 55.0401 19.2072C54.3462 19.1839 53.6777 19.0322 53.0525 18.7081C52.0599 18.1922 51.4613 17.3665 51.1906 16.2763C51.0699 15.7902 51.0432 15.2937 51.0393 14.7972C51.0305 13.4206 51.0368 12.0439 51.0355 10.6685C51.0355 10.5622 51.0355 10.4559 51.0355 10.3159C50.6543 10.303 50.2933 10.3107 49.9337 10.3094C49.5829 10.3081 49.2309 10.3094 48.8648 10.3094C48.8648 9.41111 48.8648 8.54648 48.8648 7.64685C49.574 7.60278 50.2781 7.64815 50.9758 7.62092C51.0699 7.5237 51.033 7.41092 51.0343 7.30852C51.0368 6.39074 51.0368 5.47296 51.0368 4.55518C51.0368 4.45018 51.0368 4.34648 51.0368 4.22852C52.0929 4.22852 53.1147 4.22852 54.1696 4.22852C54.1975 4.50333 54.1785 4.78333 54.1823 5.06074C54.1848 5.34333 54.1836 5.62722 54.1836 5.90981C54.1836 6.1924 54.1836 6.47629 54.1836 6.75889C54.1836 7.03889 54.1836 7.32018 54.1836 7.6274C55.2079 7.6274 56.1992 7.6274 57.2083 7.6274C57.2096 8.52703 57.2096 9.39944 57.2096 10.3068Z" fill="white"/>
<path d="M35.129 7.67352C35.129 7.76296 35.129 7.85889 35.129 7.95481C35.129 11.9176 35.1277 15.8791 35.129 19.8418C35.129 20.3409 35.1099 20.8361 34.9752 21.3209C34.6193 22.5965 33.7958 23.3911 32.5503 23.7243C32.1932 23.8202 31.8183 23.872 31.4484 23.8928C30.9426 23.9213 30.4355 23.8993 29.9297 23.8993C29.87 23.6983 29.8522 21.8096 29.9106 21.3896C30.0822 21.3896 30.2614 21.3935 30.4406 21.3883C30.6223 21.3831 30.8079 21.3948 30.9833 21.3585C31.5171 21.2457 31.8551 20.8556 31.9441 20.2567C31.9809 20.0065 32 19.7524 32.0013 19.4996C32.0051 15.6743 32.0038 11.8476 32.0038 8.02222C32.0038 7.90555 32.0038 7.79018 32.0038 7.6787C32.2389 7.61259 34.8519 7.6087 35.129 7.67352Z" fill="white"/>
<path d="M71.0141 13.3637C71.0141 16.7029 68.6223 19.3318 65.4425 19.3318C63.5615 19.3318 61.7746 18.4089 60.9155 16.8922V23.3568H59.7552V7.65739H60.8698V9.95443C61.706 8.39109 63.5171 7.42017 65.4437 7.42017C68.6223 7.42017 71.0141 10.0491 71.0141 13.3637ZM69.8067 13.3883C69.8067 10.6415 67.9258 8.53368 65.3255 8.53368C63.1205 8.53368 60.9142 9.97776 60.9142 13.365C60.9142 16.7755 63.1193 18.2196 65.3255 18.2196C67.9258 18.2183 69.8067 16.1352 69.8067 13.3883Z" fill="white"/>
<path d="M78.6281 7.65723V8.69946H78.0473C76.1905 8.69946 74.2396 10.0022 74.2396 12.3693V19.0945H73.0793V7.65723H74.1939V9.59909C75.006 8.24964 76.4231 7.58594 77.9087 7.58594C78.2341 7.58594 78.4196 7.6326 78.6281 7.65723Z" fill="white"/>
<path d="M78.7208 13.3637C78.7208 10.0011 81.2741 7.42017 84.525 7.42017C87.7518 7.42017 90.3292 10.0244 90.3292 13.3637C90.3292 16.7029 87.7518 19.3318 84.5022 19.3318C81.2741 19.3318 78.7208 16.7029 78.7208 13.3637ZM89.1219 13.3883C89.1219 10.6181 87.1024 8.53368 84.525 8.53368C81.9019 8.53368 79.9282 10.6181 79.9282 13.3883C79.9282 16.1352 81.9019 18.2196 84.5022 18.2196C87.1024 18.2196 89.1219 16.1105 89.1219 13.3883Z" fill="white"/>
<path d="M98.013 18.0517V19.094C97.4792 19.2366 96.9455 19.3312 96.2719 19.3312C94.3223 19.3312 92.8354 18.3836 92.8354 15.8973V8.74563H90.8858V7.65674H92.8354V4.41211H94.0198V7.65674H97.6419V8.74563H94.0198V15.8493C94.0198 17.7199 95.0874 18.241 96.4574 18.241C96.9925 18.241 97.4564 18.171 98.013 18.0517Z" fill="white"/>
<path d="M98.3384 13.3637C98.3384 10.0011 100.892 7.42017 104.143 7.42017C107.369 7.42017 109.947 10.0244 109.947 13.3637C109.947 16.7029 107.369 19.3318 104.12 19.3318C100.892 19.3318 98.3384 16.7029 98.3384 13.3637ZM108.739 13.3883C108.739 10.6181 106.72 8.53368 104.143 8.53368C101.52 8.53368 99.5458 10.6181 99.5458 13.3883C99.5458 16.1352 101.52 18.2196 104.12 18.2196C106.72 18.2196 108.739 16.1105 108.739 13.3883Z" fill="white"/>
<path d="M111.154 13.3637C111.154 10.0478 113.707 7.42017 116.958 7.42017C118.885 7.42017 120.464 8.34313 121.485 9.76517L120.649 10.4522C119.767 9.26868 118.537 8.53368 116.957 8.53368C114.334 8.53368 112.36 10.6648 112.36 13.365C112.36 16.0885 114.334 18.2196 116.934 18.2196C118.513 18.2196 119.743 17.4859 120.649 16.3011L121.485 16.9881C120.464 18.4089 118.862 19.3331 116.936 19.3331C113.707 19.3318 111.154 16.6796 111.154 13.3637Z" fill="white"/>
<path d="M122.344 13.3637C122.344 10.0011 124.898 7.42017 128.149 7.42017C131.376 7.42017 133.953 10.0244 133.953 13.3637C133.953 16.7029 131.376 19.3318 128.126 19.3318C124.898 19.3318 122.344 16.7029 122.344 13.3637ZM132.746 13.3883C132.746 10.6181 130.726 8.53368 128.149 8.53368C125.526 8.53368 123.552 10.6181 123.552 13.3883C123.552 16.1352 125.526 18.2196 128.126 18.2196C130.726 18.2196 132.746 16.1105 132.746 13.3883Z" fill="white"/>
<path d="M136.018 1.33398H137.178V19.0945H136.018V1.33398Z" fill="white"/>
<defs>
<linearGradient id="paint0_linear_1_234" x1="10.6226" y1="6.25773" x2="16.5562" y2="6.43713" gradientUnits="userSpaceOnUse">
<stop stop-color="white"/>
<stop offset="1" stop-color="white" stop-opacity="0"/>
</linearGradient>
<linearGradient id="paint1_linear_1_234" x1="6.01485" y1="10.7264" x2="10.5729" y2="6.96164" gradientUnits="userSpaceOnUse">
<stop stop-color="white"/>
<stop offset="1" stop-color="white" stop-opacity="0"/>
</linearGradient>
<linearGradient id="paint2_linear_1_234" x1="17.0018" y1="6.27227" x2="21.1479" y2="10.7446" gradientUnits="userSpaceOnUse">
<stop stop-color="white"/>
<stop offset="1" stop-color="white" stop-opacity="0"/>
</linearGradient>
<linearGradient id="paint3_linear_1_234" x1="21.6042" y1="10.4325" x2="20.9731" y2="16.8571" gradientUnits="userSpaceOnUse">
<stop stop-color="white"/>
<stop offset="1" stop-color="white" stop-opacity="0"/>
</linearGradient>
<linearGradient id="paint4_linear_1_234" x1="6.39747" y1="17.0886" x2="6.12314" y2="10.883" gradientUnits="userSpaceOnUse">
<stop stop-color="white"/>
<stop offset="1" stop-color="white" stop-opacity="0"/>
</linearGradient>
<linearGradient id="paint5_linear_1_234" x1="21.626" y1="17.3605" x2="16.9217" y2="20.9911" gradientUnits="userSpaceOnUse">
<stop stop-color="white"/>
<stop offset="1" stop-color="white" stop-opacity="0"/>
</linearGradient>
<linearGradient id="paint6_linear_1_234" x1="10.6267" y1="21.352" x2="6.32376" y2="17.6408" gradientUnits="userSpaceOnUse">
<stop stop-color="white"/>
<stop offset="1" stop-color="white" stop-opacity="0"/>
</linearGradient>
<linearGradient id="paint7_linear_1_234" x1="16.9028" y1="21.8758" x2="11.2041" y2="21.4592" gradientUnits="userSpaceOnUse">
<stop stop-color="white"/>
<stop offset="1" stop-color="white" stop-opacity="0"/>
</linearGradient>
</defs>
</svg>
