<svg width="16" height="16" viewBox="0 0 16 16" fill="none" xmlns="http://www.w3.org/2000/svg">
<path d="M8.928 6.9576L9.874 6.01227C9.4851 5.66472 9.00281 5.43886 8.48685 5.36262C7.97088 5.28639 7.44388 5.36314 6.97109 5.58337C6.4983 5.8036 6.10047 6.15765 5.82685 6.60168C5.55323 7.04571 5.41582 7.56023 5.43165 8.08156C5.44747 8.60289 5.61583 9.10813 5.91588 9.53475C6.21593 9.96137 6.63451 10.2906 7.11978 10.4818C7.60506 10.6729 8.13574 10.7176 8.64614 10.6102C9.15653 10.5028 9.62423 10.2481 9.99134 9.8776L9.116 9.00227H8.976C8.78539 9.16961 8.55101 9.27911 8.30035 9.31792C8.04969 9.35673 7.79317 9.32325 7.56088 9.22138C7.32858 9.11952 7.13017 8.95352 6.98891 8.74285C6.84765 8.53218 6.76941 8.28559 6.76337 8.03202C6.75734 7.77845 6.82376 7.52841 6.95483 7.31126C7.08591 7.09411 7.2762 6.91886 7.50339 6.80606C7.73057 6.69326 7.98521 6.6476 8.23743 6.67445C8.48965 6.70129 8.72898 6.79952 8.92734 6.9576H8.928Z" fill="white" fill-opacity="0.6"/>
<path fill-rule="evenodd" clip-rule="evenodd" d="M8 2C8.78793 2 9.56815 2.15519 10.2961 2.45672C11.0241 2.75825 11.6855 3.20021 12.2426 3.75736C12.7998 4.31451 13.2417 4.97595 13.5433 5.7039C13.8448 6.43185 14 7.21207 14 8C14 8.78793 13.8448 9.56815 13.5433 10.2961C13.2417 11.0241 12.7998 11.6855 12.2426 12.2426C11.6855 12.7998 11.0241 13.2417 10.2961 13.5433C9.56815 13.8448 8.78793 14 8 14C6.4087 14 4.88258 13.3679 3.75736 12.2426C2.63214 11.1174 2 9.5913 2 8C2 6.4087 2.63214 4.88258 3.75736 3.75736C4.88258 2.63214 6.4087 2 8 2ZM8 3.33333C8.61284 3.33333 9.21967 3.45404 9.78586 3.68856C10.352 3.92308 10.8665 4.26683 11.2998 4.70017C11.7332 5.13351 12.0769 5.64796 12.3114 6.21414C12.546 6.78033 12.6667 7.38716 12.6667 8C12.6667 8.61284 12.546 9.21967 12.3114 9.78586C12.0769 10.352 11.7332 10.8665 11.2998 11.2998C10.8665 11.7332 10.352 12.0769 9.78586 12.3114C9.21967 12.546 8.61284 12.6667 8 12.6667C6.76232 12.6667 5.57534 12.175 4.70017 11.2998C3.825 10.4247 3.33333 9.23768 3.33333 8C3.33333 6.76232 3.825 5.57534 4.70017 4.70017C5.57534 3.825 6.76232 3.33333 8 3.33333Z" fill="white" fill-opacity="0.6"/>
</svg>
