<svg width="54" height="54" viewBox="0 0 54 54" fill="none" xmlns="http://www.w3.org/2000/svg">
<circle cx="26.9999" cy="27.0001" r="16.2059" fill="#54C0A0" fill-opacity="0.2"/>
<circle cx="27" cy="27" r="27" fill="#54C0A0" fill-opacity="0.2"/>
<circle cx="27" cy="27" r="22" fill="#54C0A0" fill-opacity="0.2"/>
<path d="M33 27.9994L36 30.9994V34.9994C36 35.5298 35.7893 36.0385 35.4142 36.4136C35.0391 36.7887 34.5304 36.9994 34 36.9994H20C19.4696 36.9994 18.9609 36.7887 18.5858 36.4136C18.2107 36.0385 18 35.5298 18 34.9994V30.9994L21 27.9994H21.83L23.83 29.9994H21.78L20 31.9994H34L32.23 29.9994H30.32L32.32 27.9994H33ZM34 34.9994V33.9994H20V34.9994H34ZM26.34 29.9994L21.39 25.0694C21.2973 24.9769 21.2237 24.867 21.1736 24.746C21.1234 24.625 21.0976 24.4954 21.0976 24.3644C21.0976 24.2334 21.1234 24.1037 21.1736 23.9828C21.2237 23.8618 21.2973 23.7519 21.39 23.6594L27.76 17.2894C27.8516 17.1963 27.9609 17.1225 28.0815 17.0725C28.2021 17.0224 28.3315 16.9971 28.4621 16.9981C28.5927 16.999 28.7218 17.0262 28.8416 17.0779C28.9615 17.1297 29.0698 17.205 29.16 17.2994L34.11 22.2494C34.5 22.6394 34.5 23.2694 34.11 23.6594L27.75 29.9994C27.66 30.0964 27.5509 30.1737 27.4296 30.2266C27.3083 30.2795 27.1773 30.3069 27.045 30.3069C26.9127 30.3069 26.7817 30.2795 26.6604 30.2266C26.5391 30.1737 26.43 30.0964 26.34 29.9994ZM28.46 19.4094L23.5 24.3594L27.05 27.8994L32 22.9494L28.46 19.4094Z" fill="white" fill-opacity="0.8"/>
</svg>
