<svg width="54" height="54" viewBox="0 0 54 54" fill="none" xmlns="http://www.w3.org/2000/svg">
<circle cx="26.9999" cy="27.0001" r="16.2059" fill="#54C0A0" fill-opacity="0.2"/>
<circle cx="27" cy="27" r="27" fill="#54C0A0" fill-opacity="0.2"/>
<circle cx="27" cy="27" r="22" fill="#54C0A0" fill-opacity="0.2"/>
<path d="M37.2047 27.5616C36.9814 26.7271 36.5806 25.9508 36.0296 25.2855C35.4786 24.6202 34.7905 24.0818 34.0122 23.707C33.234 23.3321 32.384 23.1298 31.5204 23.1137C30.6567 23.0976 29.7998 23.2682 29.0081 23.6138L30.3413 18.2916C30.3981 18.0633 30.3818 17.8229 30.2949 17.6043C30.208 17.3856 30.0547 17.1998 29.8566 17.0728C28.5453 16.2417 26.963 15.9513 25.4421 16.2624C23.9212 16.5735 22.58 17.462 21.7005 18.7412C20.8209 20.0205 20.4714 21.5908 20.7254 23.1223C20.9794 24.6538 21.8171 26.0273 23.0625 26.9541L17.7863 28.4606C17.5595 28.5254 17.3589 28.6599 17.2127 28.8449C17.0665 29.03 16.9821 29.2563 16.9716 29.4919C16.8924 31.0525 17.4253 32.5825 18.4568 33.7563C19.4883 34.9302 20.9371 35.6553 22.4949 35.7774C24.0528 35.8995 25.5969 35.4091 26.7987 34.4103C28.0005 33.4115 28.7653 31.9833 28.9303 30.4294L32.8678 34.245C33.0375 34.4083 33.2542 34.5143 33.4873 34.5479C33.7204 34.5816 33.9582 34.5412 34.1672 34.4325C35.38 33.804 36.3421 32.7806 36.8944 31.5313C37.4467 30.2819 37.5561 28.8815 37.2047 27.5616ZM25.875 26.9991C25.875 26.7766 25.941 26.5591 26.0646 26.3741C26.1882 26.189 26.3639 26.0449 26.5695 25.9597C26.7751 25.8746 27.0013 25.8523 27.2195 25.8957C27.4377 25.9391 27.6382 26.0462 27.7955 26.2036C27.9528 26.3609 28.06 26.5614 28.1034 26.7796C28.1468 26.9978 28.1245 27.224 28.0394 27.4296C27.9542 27.6352 27.81 27.8109 27.625 27.9345C27.44 28.0581 27.2225 28.1241 27 28.1241C26.7016 28.1241 26.4155 28.0055 26.2045 27.7946C25.9935 27.5836 25.875 27.2974 25.875 26.9991ZM26.625 18.3741C27.0732 18.3741 27.5177 18.4544 27.9375 18.6113L26.6813 23.64C26.2011 23.6858 25.7363 23.8341 25.3183 24.0747C24.9002 24.3154 24.5386 24.6428 24.2578 25.035C23.6563 24.5465 23.2208 23.8835 23.0114 23.1374C22.802 22.3912 22.8289 21.5985 23.0884 20.8683C23.3479 20.1381 23.8273 19.5062 24.4606 19.0596C25.0939 18.6129 25.85 18.3734 26.625 18.3741ZM24.8438 33.0084C24.3187 33.3123 23.7279 33.4842 23.1218 33.5095C22.5157 33.5348 21.9126 33.4127 21.3641 33.1536C20.8156 32.8946 20.3381 32.5063 19.9726 32.0222C19.6071 31.5381 19.3645 30.9725 19.2656 30.3741L24.2513 28.95C24.5304 29.3437 24.8908 29.673 25.3081 29.9156C25.7253 30.1582 26.1897 30.3084 26.67 30.3563C26.5827 30.9066 26.3734 31.4304 26.0574 31.8893C25.7414 32.3482 25.3267 32.7306 24.8438 33.0084ZM34.6594 30.9872C34.4352 31.3766 34.1427 31.7224 33.7959 32.0081L30.0684 28.4053C30.2696 27.9668 30.3742 27.4901 30.375 27.0075C30.3758 26.525 30.2729 26.048 30.0731 25.6088C30.797 25.3324 31.5888 25.2871 32.3395 25.479C33.0902 25.6709 33.763 26.0907 34.2655 26.6806C34.7679 27.2704 35.0753 28.0015 35.1453 28.7732C35.2153 29.5449 35.0446 30.3193 34.6566 30.99L34.6594 30.9872Z" fill="white" fill-opacity="0.8"/>
</svg>
