<svg width="54" height="54" viewBox="0 0 54 54" fill="none" xmlns="http://www.w3.org/2000/svg">
<circle cx="26.9999" cy="27.0001" r="16.2059" fill="#54C0A0" fill-opacity="0.2"/>
<circle cx="27" cy="27" r="27" fill="#54C0A0" fill-opacity="0.2"/>
<circle cx="27" cy="27" r="22" fill="#54C0A0" fill-opacity="0.2"/>
<path d="M26.5 32.1C24.44 32.1 23.63 31.18 23.52 30H21.32C21.44 32.19 23.08 33.42 25 33.83V36H28V33.85C29.95 33.48 31.5 32.35 31.5 30.3C31.5 27.46 29.07 26.49 26.8 25.9C24.53 25.31 23.8 24.7 23.8 23.75C23.8 22.66 24.81 21.9 26.5 21.9C28.28 21.9 28.94 22.75 29 24H31.21C31.14 22.28 30.09 20.7 28 20.19V18H25V20.16C23.06 20.58 21.5 21.84 21.5 23.77C21.5 26.08 23.41 27.23 26.2 27.9C28.7 28.5 29.2 29.38 29.2 30.31C29.2 31 28.71 32.1 26.5 32.1Z" fill="white" fill-opacity="0.8"/>
<path d="M23.7689 29.9768L23.7478 29.75H23.52H21.32H21.0559L21.0704 30.0137C21.1945 32.2784 22.8466 33.5631 24.75 34.0292V36V36.25H25H28H28.25V36V34.054C29.1764 33.8508 30.0214 33.472 30.6512 32.8884C31.3329 32.2566 31.75 31.3955 31.75 30.3C31.75 28.7933 31.0988 27.7699 30.1517 27.0566C29.2186 26.3538 28.0024 25.9542 26.8629 25.658C25.7338 25.3646 25.0232 25.074 24.5975 24.759C24.3883 24.6043 24.2543 24.4481 24.1714 24.2885C24.0889 24.1296 24.05 23.9541 24.05 23.75C24.05 23.2922 24.258 22.9036 24.6601 22.6207C25.0693 22.3328 25.6889 22.15 26.5 22.15C27.3534 22.15 27.8921 22.3538 28.2244 22.664C28.5556 22.9732 28.7222 23.4259 28.7503 24.012L28.7617 24.25H29H31.21H31.4704L31.4598 23.9898C31.3877 22.2191 30.3292 20.5837 28.25 19.9973V18V17.75H28H25H24.75V18V19.9615C22.8383 20.4367 21.25 21.7421 21.25 23.77C21.25 25.0073 21.7672 25.9419 22.6477 26.6453C23.5165 27.3393 24.7336 27.8049 26.1416 28.1431L26.1417 28.1431C27.375 28.4391 28.0753 28.7959 28.4663 29.1634C28.8435 29.518 28.95 29.8989 28.95 30.31C28.95 30.5977 28.8482 30.9729 28.5109 31.2785C28.1725 31.585 27.5656 31.85 26.5 31.85C25.5041 31.85 24.8492 31.6274 24.4346 31.297C24.0247 30.9704 23.819 30.5141 23.7689 29.9768Z" stroke="white" stroke-opacity="0.8" stroke-width="0.5"/>
</svg>
