<svg width="54" height="54" viewBox="0 0 54 54" fill="none" xmlns="http://www.w3.org/2000/svg">
<circle cx="26.9999" cy="27.0001" r="16.2059" fill="#54C0A0" fill-opacity="0.2"/>
<circle cx="27" cy="27" r="27" fill="#54C0A0" fill-opacity="0.2"/>
<circle cx="27" cy="27" r="22" fill="#54C0A0" fill-opacity="0.2"/>
<g clip-path="url(#clip0_1_30)">
<path d="M27 32.1781V33.9095M27 23.5895V25.2009M27 38.1266C33 38.1266 37.2857 36.0009 37.2857 31.2695C37.2857 26.1266 34.7143 22.6981 29.5714 20.1266L31.5943 17.5209C31.6971 17.35 31.7528 17.1549 31.7559 16.9554C31.7589 16.756 31.7092 16.5592 31.6118 16.3852C31.5143 16.2112 31.3725 16.066 31.2009 15.9644C31.0292 15.8628 30.8338 15.8084 30.6343 15.8066H23.3657C23.1663 15.8084 22.9708 15.8628 22.7991 15.9644C22.6275 16.066 22.4857 16.2112 22.3883 16.3852C22.2908 16.5592 22.2411 16.756 22.2441 16.9554C22.2472 17.1549 22.303 17.35 22.4057 17.5209L24.4286 20.1438C19.2857 22.7324 16.7143 26.1609 16.7143 31.3038C16.7143 36.0009 21 38.1266 27 38.1266Z" stroke="white" stroke-opacity="0.8" stroke-width="2" stroke-linecap="round" stroke-linejoin="round"/>
<path d="M25.2857 31.3895C25.4949 31.6378 25.7582 31.8348 26.0553 31.9656C26.3525 32.0963 26.6757 32.1573 27 32.1438C27.4958 32.1776 27.9854 32.0178 28.3658 31.6981C28.7463 31.3784 28.9879 30.9237 29.04 30.4295C28.9879 29.9353 28.7463 29.4805 28.3658 29.1608C27.9854 28.8411 27.4958 28.6814 27 28.7152C26.5042 28.749 26.0147 28.5892 25.6342 28.2695C25.2538 27.9498 25.0121 27.4951 24.96 27.0009C25.0079 26.505 25.2484 26.0476 25.6299 25.7271C26.0113 25.4065 26.5033 25.2484 27 25.2866C27.3187 25.2671 27.6377 25.3185 27.9341 25.4371C28.2305 25.5556 28.497 25.7384 28.7143 25.9723" stroke="white" stroke-opacity="0.8" stroke-width="2" stroke-linecap="round" stroke-linejoin="round"/>
</g>
<defs>
<clipPath id="clip0_1_30">
<rect width="24" height="24" fill="white" transform="translate(15 15)"/>
</clipPath>
</defs>
</svg>
