<svg width="1280" height="840" viewBox="0 0 1280 840" fill="none" xmlns="http://www.w3.org/2000/svg">
<line x1="-4.37114e-08" y1="39.5" x2="1280" y2="39.4999" stroke="white" stroke-opacity="0.24"/>
<line x1="-4.37114e-08" y1="79.5" x2="1280" y2="79.4999" stroke="white" stroke-opacity="0.24"/>
<line x1="-4.37114e-08" y1="119.5" x2="1280" y2="119.5" stroke="white" stroke-opacity="0.24"/>
<line x1="-4.37114e-08" y1="159.5" x2="1280" y2="159.5" stroke="white" stroke-opacity="0.24"/>
<line x1="-4.37114e-08" y1="199.5" x2="1280" y2="199.5" stroke="white" stroke-opacity="0.24"/>
<line x1="-4.37114e-08" y1="239.5" x2="1280" y2="239.5" stroke="white" stroke-opacity="0.24"/>
<line x1="-4.37114e-08" y1="279.5" x2="1280" y2="279.5" stroke="white" stroke-opacity="0.24"/>
<line x1="-4.37114e-08" y1="319.5" x2="1280" y2="319.5" stroke="white" stroke-opacity="0.24"/>
<line x1="-4.37114e-08" y1="359.5" x2="1280" y2="359.5" stroke="white" stroke-opacity="0.24"/>
<line x1="-4.37114e-08" y1="399.5" x2="1280" y2="399.5" stroke="white" stroke-opacity="0.24"/>
<line x1="-4.37114e-08" y1="439.5" x2="1280" y2="439.5" stroke="white" stroke-opacity="0.24"/>
<line x1="-4.37114e-08" y1="479.5" x2="1280" y2="479.5" stroke="white" stroke-opacity="0.24"/>
<line x1="-4.37114e-08" y1="519.5" x2="1280" y2="519.5" stroke="white" stroke-opacity="0.24"/>
<line x1="-4.37114e-08" y1="559.5" x2="1280" y2="559.5" stroke="white" stroke-opacity="0.24"/>
<line x1="-4.37114e-08" y1="599.5" x2="1280" y2="599.5" stroke="white" stroke-opacity="0.24"/>
<line x1="-4.37114e-08" y1="639.5" x2="1280" y2="639.5" stroke="white" stroke-opacity="0.24"/>
<line x1="-4.37114e-08" y1="679.5" x2="1280" y2="679.5" stroke="white" stroke-opacity="0.24"/>
<line x1="-4.37114e-08" y1="719.5" x2="1280" y2="719.5" stroke="white" stroke-opacity="0.24"/>
<line x1="-4.37114e-08" y1="759.5" x2="1280" y2="759.5" stroke="white" stroke-opacity="0.24"/>
<line x1="-4.37114e-08" y1="799.5" x2="1280" y2="799.5" stroke="white" stroke-opacity="0.24"/>
<line x1="57.5" y1="-2.18557e-08" x2="57.5" y2="840" stroke="white" stroke-opacity="0.24"/>
<line x1="17.5" y1="-2.18557e-08" x2="17.5" y2="840" stroke="white" stroke-opacity="0.24"/>
<line x1="97.5" y1="-2.18557e-08" x2="97.5" y2="840" stroke="white" stroke-opacity="0.24"/>
<line x1="137.5" y1="-2.18557e-08" x2="137.5" y2="840" stroke="white" stroke-opacity="0.24"/>
<line x1="177.5" y1="-2.18557e-08" x2="177.5" y2="840" stroke="white" stroke-opacity="0.24"/>
<line x1="217.5" y1="-2.18557e-08" x2="217.5" y2="840" stroke="white" stroke-opacity="0.24"/>
<line x1="257.5" y1="-2.18557e-08" x2="257.5" y2="840" stroke="white" stroke-opacity="0.24"/>
<line x1="297.5" y1="-2.18557e-08" x2="297.5" y2="840" stroke="white" stroke-opacity="0.24"/>
<line x1="337.5" y1="-2.18557e-08" x2="337.5" y2="840" stroke="white" stroke-opacity="0.24"/>
<line x1="377.5" y1="-2.18557e-08" x2="377.5" y2="840" stroke="white" stroke-opacity="0.24"/>
<line x1="417.5" y1="-2.18557e-08" x2="417.5" y2="840" stroke="white" stroke-opacity="0.24"/>
<line x1="457.5" y1="-2.18557e-08" x2="457.5" y2="840" stroke="white" stroke-opacity="0.24"/>
<line x1="497.5" y1="-2.18557e-08" x2="497.5" y2="840" stroke="white" stroke-opacity="0.24"/>
<line x1="537.5" y1="-2.18557e-08" x2="537.5" y2="840" stroke="white" stroke-opacity="0.24"/>
<line x1="577.5" y1="-2.18557e-08" x2="577.5" y2="840" stroke="white" stroke-opacity="0.24"/>
<line x1="617.5" y1="-2.18557e-08" x2="617.5" y2="840" stroke="white" stroke-opacity="0.24"/>
<line x1="657.5" y1="-2.18557e-08" x2="657.5" y2="840" stroke="white" stroke-opacity="0.24"/>
<line x1="697.5" y1="-2.18557e-08" x2="697.5" y2="840" stroke="white" stroke-opacity="0.24"/>
<line x1="737.5" y1="-2.18557e-08" x2="737.5" y2="840" stroke="white" stroke-opacity="0.24"/>
<line x1="777.5" y1="-2.18557e-08" x2="777.5" y2="840" stroke="white" stroke-opacity="0.24"/>
<line x1="817.5" y1="-2.18557e-08" x2="817.5" y2="840" stroke="white" stroke-opacity="0.24"/>
<line x1="857.5" y1="-2.18557e-08" x2="857.5" y2="840" stroke="white" stroke-opacity="0.24"/>
<line x1="897.5" y1="-2.18557e-08" x2="897.5" y2="840" stroke="white" stroke-opacity="0.24"/>
<line x1="937.5" y1="-2.18557e-08" x2="937.5" y2="840" stroke="white" stroke-opacity="0.24"/>
<line x1="977.5" y1="-2.18557e-08" x2="977.5" y2="840" stroke="white" stroke-opacity="0.24"/>
<line x1="1017.5" y1="-2.18557e-08" x2="1017.5" y2="840" stroke="white" stroke-opacity="0.24"/>
<line x1="1057.5" y1="-2.18557e-08" x2="1057.5" y2="840" stroke="white" stroke-opacity="0.24"/>
<line x1="1097.5" y1="-2.18557e-08" x2="1097.5" y2="840" stroke="white" stroke-opacity="0.24"/>
<line x1="1137.5" y1="-2.18557e-08" x2="1137.5" y2="840" stroke="white" stroke-opacity="0.24"/>
<line x1="1177.5" y1="-2.18557e-08" x2="1177.5" y2="840" stroke="white" stroke-opacity="0.24"/>
<line x1="1217.5" y1="-2.18557e-08" x2="1217.5" y2="840" stroke="white" stroke-opacity="0.24"/>
<line x1="1257.5" y1="-2.18557e-08" x2="1257.5" y2="840" stroke="white" stroke-opacity="0.24"/>
<rect width="1280" height="459" fill="url(#paint0_radial_1_155)"/>
<defs>
<radialGradient id="paint0_radial_1_155" cx="0" cy="0" r="1" gradientUnits="userSpaceOnUse" gradientTransform="translate(640 229.5) rotate(90) scale(229.5 464.141)">
<stop stop-opacity="0"/>
<stop offset="1" stop-opacity="0.8"/>
</radialGradient>
</defs>
</svg>
